<?xml version="1.0" standalone="no"?>
<!DOCTYPE svg PUBLIC "-//W3C//DTD SVG 20010904//EN"
 "http://www.w3.org/TR/2001/REC-SVG-20010904/DTD/svg10.dtd">
<svg version="1.0" xmlns="http://www.w3.org/2000/svg"
 width="512.000000pt" height="512.000000pt" viewBox="0 0 512.000000 512.000000"
 preserveAspectRatio="xMidYMid meet">
<metadata>
Created by potrace 1.14, written by Peter Selinger 2001-2017
</metadata>
<g transform="translate(0.000000,512.000000) scale(0.100000,-0.100000)"
fill="#000000" stroke="none">
<path d="M4542 5097 c-10 -12 -26 -53 -59 -151 -17 -48 -18 -49 -110 -92 -122
-56 -122 -66 0 -124 l92 -45 36 -100 c51 -141 62 -140 119 20 12 33 25 66 28
73 4 7 45 30 92 51 71 31 85 42 88 62 3 22 -4 28 -55 50 -126 53 -125 52 -169
181 -26 76 -44 98 -62 75z"/>
<path d="M593 4855 c-41 -29 -37 -116 7 -130 50 -16 63 -14 91 15 24 24 28 35
24 62 -10 58 -74 87 -122 53z"/>
<path d="M1116 4564 c-123 -38 -214 -132 -251 -256 -14 -49 -15 -256 -13
-2034 l3 -1979 33 -67 c50 -101 152 -183 254 -204 46 -10 2713 -12 2765 -2
138 24 262 139 294 273 14 60 20 3898 6 3979 -19 110 -108 224 -214 274 l-58
27 -1385 2 c-1210 2 -1391 0 -1434 -13z"/>
<path d="M257 4318 c-8 -13 -27 -60 -43 -105 l-28 -82 -89 -41 c-87 -41 -110
-61 -89 -82 6 -6 48 -27 93 -48 l83 -37 39 -107 c49 -133 59 -134 104 -16 17
47 34 93 36 103 3 10 41 34 93 58 49 22 92 45 96 52 13 21 -10 40 -93 78 -46
21 -87 44 -91 51 -4 7 -22 53 -40 102 -18 49 -38 91 -45 93 -6 3 -18 -6 -26
-19z"/>
<path d="M4887 4275 c-198 -50 -173 -344 31 -362 101 -10 185 60 197 163 16
131 -99 232 -228 199z"/>
</g>
</svg>
